<svg width="154.645" height="24" viewBox="0 0 154.645 24" fill="none" xmlns="http://www.w3.org/2000/svg">
<path d="M9.59196 2.40804C9.59196 6.00503 14.3879 8.00335 19.1839 6.40469C14.3879 8.00335 9.59196 15.597 9.59196 21.592C9.59196 15.597 4.79598 8.00335 0 6.40469C4.79598 8.00335 9.59196 6.00503 9.59196 2.40804Z" fill="#49D2AA"/>
<path fill-rule="evenodd" clip-rule="evenodd" d="M53.0106 7.09858C54.6106 7.09859 56.0528 7.47036 57.3373 8.21397C58.6218 8.95763 59.6359 9.9718 60.3796 11.2563C61.1458 12.5183 61.5289 13.938 61.5289 15.5154C61.5289 17.0929 61.1457 18.5238 60.3796 19.8083C59.6359 21.0928 58.6218 22.1182 57.3373 22.8844C56.0528 23.628 54.6106 24 53.0106 24C51.4332 24 50.002 23.628 48.7175 22.8844C47.4331 22.1182 46.4076 21.0928 45.6415 19.8083C44.8978 18.5238 44.5261 17.0929 44.5261 15.5154C44.5261 13.938 44.8978 12.5182 45.6415 11.2563C46.4076 9.99435 47.4331 8.9916 48.7175 8.24794C50.002 7.48175 51.4332 7.09858 53.0106 7.09858ZM53.0106 10.6816C52.1092 10.6816 51.2979 10.8958 50.5767 11.324C49.8782 11.7296 49.326 12.293 48.9204 13.0141C48.5373 13.7352 48.3457 14.569 48.3457 15.5154C48.3457 16.4619 48.5373 17.3071 48.9204 18.0508C49.326 18.7944 49.8782 19.3802 50.5767 19.8083C51.2979 20.214 52.1092 20.417 53.0106 20.417C53.9345 20.417 54.7457 20.2139 55.4443 19.8083C56.1654 19.3802 56.7175 18.7944 57.1006 18.0508C57.5063 17.3071 57.7091 16.4619 57.7091 15.5154C57.709 14.569 57.5063 13.7352 57.1006 13.0141C56.695 12.293 56.1429 11.7296 55.4443 11.324C54.7457 10.8958 53.9345 10.6816 53.0106 10.6816Z" fill="#F2F4F5"/>
<path fill-rule="evenodd" clip-rule="evenodd" d="M89.7257 7.09858C90.9651 7.09859 92.0579 7.36907 93.0044 7.90988C93.661 8.2611 94.2243 8.70569 94.6947 9.24318V8.48248C94.6947 8.2113 94.5784 7.96925 94.346 7.75622C94.1136 7.54327 93.8232 7.43664 93.4746 7.43664H98.4129V23.6619H94.6947V21.8797C94.2381 22.4128 93.6864 22.8607 93.0384 23.2224C92.0694 23.7407 90.9651 24 89.7257 24C88.2609 24 86.9313 23.628 85.7369 22.8844C84.5651 22.1407 83.6298 21.138 82.9312 19.876C82.2552 18.5915 81.9173 17.1606 81.9172 15.5831C81.9172 13.9831 82.2551 12.552 82.9312 11.29C83.6298 10.0056 84.5651 8.99159 85.7369 8.24794C86.9313 7.48175 88.2609 7.09858 89.7257 7.09858ZM90.3341 10.6141C89.4327 10.6141 88.6327 10.8282 87.9342 11.2563C87.2581 11.6619 86.7172 12.2367 86.3116 12.9803C85.9285 13.724 85.7369 14.5802 85.7369 15.5492C85.7369 16.5182 85.9285 17.3746 86.3116 18.1183C86.7172 18.8619 87.2581 19.4479 87.9342 19.876C88.6327 20.2816 89.4327 20.4844 90.3341 20.4844C91.7087 20.4844 92.813 20.0224 93.6468 19.0985C94.5031 18.1745 94.9313 16.9914 94.9313 15.5492C94.9313 14.5802 94.7397 13.724 94.3566 12.9803C93.9735 12.2367 93.4326 11.6619 92.734 11.2563C92.058 10.8281 91.258 10.6141 90.3341 10.6141Z" fill="#F2F4F5"/>
<path d="M115.904 7.09858C117.166 7.09858 118.338 7.34641 119.42 7.84218C120.524 8.31542 121.459 9.00287 122.226 9.90428L119.792 12.3719C119.318 11.8086 118.744 11.3915 118.068 11.1211C117.414 10.8282 116.693 10.6816 115.904 10.6816C114.98 10.6816 114.158 10.8958 113.437 11.324C112.738 11.7296 112.186 12.293 111.78 13.0141C111.397 13.7352 111.206 14.5802 111.206 15.5492C111.206 16.4956 111.397 17.3409 111.78 18.0845C112.186 18.8056 112.738 19.3802 113.437 19.8083C114.158 20.2139 114.98 20.417 115.904 20.417C116.693 20.417 117.414 20.2816 118.068 20.0112C118.744 19.7183 119.318 19.29 119.792 18.7267L122.226 21.1943C121.459 22.0957 120.524 22.7944 119.42 23.2901C118.338 23.7634 117.166 24 115.904 24C114.304 24 112.851 23.628 111.544 22.8844C110.259 22.1407 109.245 21.1267 108.502 19.8423C107.758 18.5578 107.386 17.1266 107.386 15.5492C107.386 13.9492 107.758 12.5182 108.502 11.2563C109.245 9.97182 110.259 8.95762 111.544 8.21397C112.851 7.47032 114.304 7.09859 115.904 7.09858Z" fill="#F2F4F5"/>
<path d="M131.032 7.09858C132.294 7.09859 133.466 7.34641 134.548 7.84218C135.652 8.31541 136.587 9.00289 137.353 9.90428L134.92 12.3719C134.447 11.8085 133.872 11.3915 133.196 11.1211C132.542 10.8282 131.821 10.6816 131.032 10.6816C130.108 10.6816 129.286 10.8958 128.565 11.324C127.866 11.7296 127.314 12.293 126.908 13.0141C126.525 13.7352 126.334 14.5802 126.334 15.5492C126.334 16.4957 126.525 17.3409 126.908 18.0845C127.314 18.8056 127.866 19.3802 128.565 19.8083C129.286 20.214 130.108 20.417 131.032 20.417C131.821 20.417 132.542 20.2816 133.196 20.0112C133.872 19.7183 134.447 19.29 134.92 18.7267L137.353 21.1943C136.587 22.0957 135.652 22.7944 134.548 23.2901C133.466 23.7634 132.294 24 131.032 24C129.432 24 127.979 23.628 126.672 22.8844C125.387 22.1407 124.373 21.1268 123.63 19.8423C122.886 18.5578 122.514 17.1266 122.514 15.5492C122.514 13.9492 122.886 12.5182 123.63 11.2563C124.373 9.97178 125.387 8.95764 126.672 8.21397C127.979 7.47033 129.432 7.09858 131.032 7.09858Z" fill="#F2F4F5"/>
<path fill-rule="evenodd" clip-rule="evenodd" d="M146.127 7.09858C147.727 7.09858 149.169 7.47031 150.453 8.21397C151.738 8.95762 152.752 9.97182 153.496 11.2563C154.262 12.5183 154.645 13.938 154.645 15.5154C154.645 17.0929 154.262 18.5238 153.496 19.8083C152.752 21.0928 151.738 22.1182 150.453 22.8844C149.169 23.628 147.727 24 146.127 24C144.549 24 143.118 23.628 141.834 22.8844C140.549 22.1182 139.524 21.0928 138.758 19.8083C138.014 18.5238 137.642 17.0929 137.642 15.5154C137.642 13.938 138.014 12.5183 138.758 11.2563C139.524 9.99434 140.549 8.9916 141.834 8.24794C143.118 7.48175 144.549 7.09859 146.127 7.09858ZM146.127 10.6816C145.225 10.6816 144.414 10.8959 143.693 11.324C142.994 11.7296 142.442 12.293 142.037 13.0141C141.654 13.7352 141.462 14.569 141.462 15.5154C141.462 16.4619 141.654 17.3071 142.037 18.0508C142.442 18.7944 142.994 19.3802 143.693 19.8083C144.414 20.2139 145.225 20.417 146.127 20.417C147.051 20.417 147.862 20.214 148.561 19.8083C149.282 19.3802 149.834 18.7944 150.217 18.0508C150.622 17.3071 150.825 16.4619 150.825 15.5154C150.825 14.569 150.622 13.7352 150.217 13.0141C149.811 12.293 149.259 11.7296 148.561 11.324C147.862 10.8958 147.051 10.6816 146.127 10.6816Z" fill="#F2F4F5"/>
<path d="M36.2882 17.2667L43.0794 0H47.2373L37.6033 23.6619H34.899L26.3284 2.46084C25.831 1.23042 24.4705 0 22.6125 0H29.5583L36.2882 17.2667Z" fill="#F2F4F5"/>
<path d="M67.3252 23.6619H63.607V1.04609C63.607 0.774929 63.4907 0.53263 63.2583 0.319673C63.0259 0.106715 62.7354 0 62.3869 0H67.3252V23.6619Z" fill="#F2F4F5"/>
<path d="M77.8182 7.43664H81.7056V10.8168H77.8182V23.6619H74.1V10.8168H70.2127V7.43664H74.1V3.92271C74.1 3.65152 73.9839 3.40927 73.7516 3.19621C73.5192 2.98328 73.2287 2.87666 72.8802 2.87664H77.8182V7.43664Z" fill="#F2F4F5"/>
<path d="M105.278 23.6619H101.559V8.48248C101.559 8.21132 101.443 7.96924 101.211 7.75622C100.978 7.54328 100.688 7.43666 100.339 7.43664H105.278V23.6619Z" fill="#F2F4F5"/>
<path d="M103.418 0C104.072 3.15377e-06 104.601 0.214052 105.007 0.642154C105.413 1.07032 105.616 1.60003 105.616 2.23102C105.616 2.86199 105.413 3.39149 105.007 3.81965C104.601 4.24781 104.072 4.46203 103.418 4.46203C102.787 4.46203 102.258 4.2478 101.83 3.81965C101.424 3.39149 101.221 2.86199 101.221 2.23102C101.221 1.60003 101.424 1.07032 101.83 0.642154C102.258 0.214054 102.787 0 103.418 0Z" fill="#F2F4F5"/>
</svg>
